<svg width="522" height="522" viewBox="0 0 522 522" fill="none" xmlns="http://www.w3.org/2000/svg">
<path d="M105.509 517L171.499 202.507C172.578 197.364 174.602 192.466 177.467 188.062L183.28 179.125C187.495 172.645 194.7 168.736 202.43 168.736V168.736C208.891 168.736 215.05 171.472 219.382 176.267L221.158 178.232C224.758 182.218 227.173 187.131 228.13 192.417L240.771 262.29M280.186 262.29L292.827 192.417C293.783 187.131 296.198 182.218 299.798 178.232L301.574 176.267C305.906 171.472 312.065 168.736 318.526 168.736V168.736C326.256 168.736 333.461 172.645 337.676 179.125L343.489 188.062C346.354 192.466 348.378 197.364 349.457 202.507L415.447 517" stroke="black" stroke-width="10" stroke-linecap="round"/>
<path d="M517 116.097L452.573 142.541C452.257 142.671 451.899 142.654 451.597 142.494L393.312 111.773C393.05 111.635 392.745 111.603 392.46 111.684L320.113 132.217C319.814 132.302 319.562 132.504 319.414 132.777L317.021 137.192C316.896 137.422 316.854 137.688 316.9 137.946L322.357 168.145C322.424 168.515 322.667 168.829 323.009 168.987L328.099 171.335L336.33 176.397C336.476 176.486 336.6 176.607 336.693 176.75L345.004 189.528L347.75 194.593C347.798 194.681 347.834 194.775 347.857 194.872L353.295 217.441C353.395 217.857 353.716 218.183 354.13 218.289L403.986 231.063C404.111 231.095 404.24 231.106 404.369 231.095L516.652 221.639" stroke="black" stroke-width="10" stroke-linecap="round"/>
<path d="M4.99954 115.775L69.4272 142.219C69.7433 142.349 70.1006 142.332 70.4029 142.173L128.688 111.452C128.95 111.313 129.255 111.281 129.54 111.362L201.887 131.896C202.186 131.98 202.438 132.182 202.586 132.455L204.979 136.87C205.104 137.101 205.146 137.367 205.1 137.625L199.643 167.823C199.576 168.193 199.333 168.508 198.991 168.665L193.901 171.013L185.67 176.075C185.524 176.164 185.4 176.285 185.307 176.428L176.996 189.206L174.25 194.271C174.202 194.359 174.166 194.453 174.143 194.551L168.705 217.12C168.605 217.535 168.284 217.861 167.87 217.967L118.014 230.741C117.889 230.773 117.76 230.784 117.631 230.773L5.34808 221.317" stroke="black" stroke-width="10" stroke-linecap="round"/>
<path d="M393.606 147.697C396.34 147.309 398.242 144.778 397.854 142.044C397.466 139.31 394.935 137.408 392.201 137.796L393.606 147.697ZM320.348 158.093L393.606 147.697L392.201 137.796L318.943 148.192L320.348 158.093Z" fill="black"/>
<path d="M127.348 147.697C124.614 147.309 122.712 144.778 123.1 142.044C123.488 139.31 126.019 137.408 128.753 137.796L127.348 147.697ZM200.606 158.093L127.348 147.697L128.753 137.796L202.011 148.192L200.606 158.093Z" fill="black"/>
<path d="M336.548 168.934H331.548V178.934H336.548V168.934ZM395.718 178.934C398.479 178.934 400.718 176.696 400.718 173.934C400.718 171.173 398.479 168.934 395.718 168.934V178.934ZM336.548 178.934H395.718V168.934H336.548V178.934Z" fill="black"/>
<path d="M184.401 168.934H189.401V178.934H184.401V168.934ZM125.231 178.934C122.47 178.934 120.231 176.696 120.231 173.934C120.231 171.173 122.47 168.934 125.231 168.934V178.934ZM184.401 178.934H125.231V168.934H184.401V178.934Z" fill="black"/>
<path d="M392.333 204.891C395.077 205.208 397.557 203.24 397.873 200.497C398.19 197.754 396.222 195.273 393.479 194.957L392.333 204.891ZM347.252 199.693L392.333 204.891L393.479 194.957L348.397 189.759L347.252 199.693Z" fill="black"/>
<path d="M128.62 204.891C125.876 205.208 123.396 203.24 123.08 200.497C122.764 197.754 124.731 195.273 127.474 194.957L128.62 204.891ZM173.702 199.693L128.62 204.891L127.474 194.957L172.556 189.759L173.702 199.693Z" fill="black"/>
<path d="M367.397 51.779L381.012 47.6298C383.302 46.9321 385.611 46.3097 387.951 45.8059C391.508 45.0401 396.739 43.9839 398.536 43.9839H401.353V43.9839C408.484 43.9839 415.235 47.1958 419.734 52.7285L421.077 54.3798V54.3798C424.677 59.3616 426.094 65.5948 425.001 71.6436L424.875 72.3404C424.23 75.915 422.79 79.299 420.662 82.243L419.636 83.6623C418.719 84.9308 417.711 86.1302 416.618 87.251L392.975 111.507" stroke="black" stroke-width="10" stroke-linecap="round"/>
<path d="M153.133 51.779L140.278 47.7627C137.761 46.9764 135.219 46.2808 132.641 45.7292C129.1 44.9716 124.151 43.9839 122.414 43.9839H119.596V43.9839C112.465 43.9839 105.714 47.1958 101.215 52.7285L99.8725 54.3798V54.3798C96.2719 59.3616 94.8549 65.5948 95.9479 71.6436L96.0738 72.3404C96.7196 75.915 98.1595 79.299 100.287 82.243L101.313 83.6623C102.23 84.9308 103.239 86.1302 104.331 87.251L127.974 111.507" stroke="black" stroke-width="10" stroke-linecap="round"/>
<path d="M116.779 231.111L104.411 258.49C103.269 261.018 102.475 263.688 102.051 266.429L101.2 271.927C100.358 277.359 101.95 282.887 105.552 287.04V287.04C109.103 291.135 114.257 293.487 119.678 293.487H124.462C128.682 293.487 132.851 292.572 136.683 290.804L153.408 283.091" stroke="black" stroke-width="10"/>
<path d="M400.946 229.293L416.005 257.996C417.5 260.846 418.514 263.922 419.006 267.102L419.754 271.927C420.595 277.36 419.003 282.887 415.401 287.04V287.04C411.85 291.135 406.696 293.487 401.275 293.487H396.491C392.271 293.487 388.102 292.572 384.27 290.805L367.545 283.092" stroke="black" stroke-width="10"/>
<path d="M153.408 51.7817L175.046 11.8644C177.339 7.63462 181.764 5 186.575 5V5C188.844 5 191.075 5.58894 193.048 6.70923L218.722 21.2821C223.929 24.238 229.814 25.7919 235.802 25.7919H285.154C291.142 25.7919 297.027 24.238 302.234 21.2821L327.907 6.70924C329.881 5.58894 332.111 5 334.381 5V5C339.192 5 343.617 7.63462 345.91 11.8644L367.548 51.7817" stroke="black" stroke-width="10" stroke-linecap="round"/>
<path d="M240.754 262.299L254.875 260.129C256.729 259.844 258.602 259.7 260.477 259.7V259.7C262.353 259.7 264.226 259.844 266.08 260.129L280.201 262.299" stroke="black" stroke-width="10" stroke-linecap="round"/>
<path d="M268.81 85.5693H252.149C252.114 85.5693 252.101 85.6151 252.131 85.6334L257.459 88.9097C259.311 90.049 261.647 90.049 263.5 88.9097L268.828 85.6334C268.858 85.6151 268.845 85.5693 268.81 85.5693Z" fill="black" stroke="black" stroke-width="10"/>
<path d="M289.863 439.03H233.906C230.31 439.03 227.743 442.512 228.807 445.947C230.883 452.652 237.084 457.222 244.103 457.222H279.665C286.684 457.222 292.885 452.652 294.962 445.947C296.026 442.512 293.459 439.03 289.863 439.03Z" stroke="black" stroke-width="10" stroke-linejoin="round"/>
<path d="M184.401 376.655L209.164 451.662C213.844 465.84 227.09 475.416 242.02 475.416H278.935C293.864 475.416 307.11 465.84 311.791 451.662L336.553 376.655" stroke="black" stroke-width="10" stroke-linecap="round"/>
<path d="M297.103 54.3799V75.1717" stroke="black" stroke-width="10" stroke-linecap="round"/>
<path d="M226.664 314.279V340.269" stroke="black" stroke-width="10" stroke-linecap="round"/>
<path d="M294.289 314.279V340.269" stroke="black" stroke-width="10" stroke-linecap="round"/>
<path d="M223.847 54.3799V75.1717" stroke="black" stroke-width="10" stroke-linecap="round"/>
</svg>
