<svg width="38" height="38" viewBox="0 0 38 38" fill="none" xmlns="http://www.w3.org/2000/svg">
<path d="M38 19C38 29.4934 29.4934 38 19 38C8.50659 38 0 29.4934 0 19C0 8.50659 8.50659 0 19 0C29.4934 0 38 8.50659 38 19Z" fill="white"/>
<path d="M28.5 34L24.5933 15.3446C24.5259 15.0229 24.3994 14.7165 24.2202 14.441L23.8571 13.8828C23.5936 13.4778 23.1433 13.2335 22.6602 13.2335V13.2335C22.2564 13.2335 21.8714 13.4045 21.6007 13.7042L21.4897 13.827C21.2647 14.0761 21.1138 14.3832 21.054 14.7135L20.2639 19.0806M17.8005 19.0806L17.0104 14.7135C16.9507 14.3832 16.7997 14.0761 16.5747 13.827L16.4637 13.7042C16.193 13.4045 15.808 13.2335 15.4042 13.2335V13.2335C14.9211 13.2335 14.4708 13.4778 14.2074 13.8828L13.8424 14.4438C13.6644 14.7175 13.5382 15.0217 13.4703 15.3411L9.5 34" stroke="black" stroke-width="0.8" stroke-linecap="round"/>
<path d="M3.5 10L7.01372 11.5892C7.04159 11.6018 7.07372 11.6008 7.10078 11.5865L10.7209 9.67841C10.7434 9.66654 10.7697 9.66379 10.7942 9.67075L15.2945 10.948C15.3202 10.9553 15.3418 10.9726 15.3545 10.9961L15.4942 11.2537C15.5049 11.2735 15.5086 11.2964 15.5046 11.3185L15.1677 13.1827C15.162 13.2146 15.1411 13.2416 15.1117 13.2551L14.8063 13.396L14.297 13.7091C14.2845 13.7168 14.2739 13.7272 14.2659 13.7395L13.7497 14.533L13.5798 14.8465C13.5757 14.854 13.5726 14.8621 13.5706 14.8705L13.2354 16.2618C13.2268 16.2975 13.1992 16.3255 13.1636 16.3346L10.0673 17.128C10.0569 17.1306 10.0461 17.1316 10.0354 17.1308L1.5 16.5" stroke="black" stroke-width="0.8" stroke-linecap="round"/>
<path d="M34.5 10L30.9861 11.5694C30.9583 11.5818 30.9264 11.5807 30.8995 11.5665L27.2791 9.65827C27.2566 9.6464 27.2303 9.64365 27.2058 9.6506L22.7055 10.9279C22.6798 10.9352 22.6582 10.9525 22.6455 10.976L22.5058 11.2335C22.4951 11.2533 22.4914 11.2762 22.4954 11.2984L22.8323 13.1626C22.838 13.1944 22.8589 13.2214 22.8883 13.235L23.1937 13.3758L23.703 13.689C23.7155 13.6967 23.7261 13.7071 23.7341 13.7194L24.2503 14.5129L24.4202 14.8263C24.4243 14.8339 24.4274 14.842 24.4294 14.8503L24.7646 16.2417C24.7732 16.2774 24.8008 16.3054 24.8364 16.3145L27.9328 17.1078C27.9431 17.1105 27.9538 17.1115 27.9645 17.1107L36.5 16.5" stroke="black" stroke-width="0.8" stroke-linecap="round"/>
<path d="M10.7001 12.0052C10.4814 11.9741 10.3293 11.7717 10.3603 11.5529C10.3913 11.3342 10.5938 11.1821 10.8125 11.2131L10.7001 12.0052ZM15.2788 12.6549L10.7001 12.0052L10.8125 11.2131L15.3912 11.8628L15.2788 12.6549Z" fill="black"/>
<path d="M27.3653 12.0052C27.584 11.9741 27.7362 11.7717 27.7051 11.5529C27.6741 11.3342 27.4716 11.1821 27.2529 11.2131L27.3653 12.0052ZM22.7867 12.6549L27.3653 12.0052L27.2529 11.2131L22.6743 11.8628L22.7867 12.6549Z" fill="black"/>
<path d="M14.2783 13.1584H14.6783V13.9584H14.2783V13.1584ZM10.5802 13.9584C10.3593 13.9584 10.1802 13.7793 10.1802 13.5584C10.1802 13.3375 10.3593 13.1584 10.5802 13.1584V13.9584ZM14.2783 13.9584H10.5802V13.1584H14.2783V13.9584Z" fill="black"/>
<path d="M23.7881 13.1584H23.3881V13.9584H23.7881V13.1584ZM27.4862 13.9584C27.7071 13.9584 27.8862 13.7793 27.8862 13.5584C27.8862 13.3375 27.7071 13.1584 27.4862 13.1584V13.9584ZM23.7881 13.9584H27.4862V13.1584H23.7881V13.9584Z" fill="black"/>
<path d="M10.8024 15.5802C10.583 15.6055 10.3845 15.4481 10.3592 15.2286C10.3339 15.0091 10.4913 14.8107 10.7108 14.7854L10.8024 15.5802ZM13.62 15.2553L10.8024 15.5802L10.7108 14.7854L13.5284 14.4605L13.62 15.2553Z" fill="black"/>
<path d="M27.264 15.5802C27.4834 15.6055 27.6819 15.4481 27.7072 15.2286C27.7325 15.0091 27.5751 14.8107 27.3556 14.7854L27.264 15.5802ZM24.4464 15.2553L27.264 15.5802L27.3556 14.7854L24.538 14.4605L24.4464 15.2553Z" fill="black"/>
<path d="M12.3497 5.92372L11.5793 5.68894C11.3826 5.62897 11.1839 5.57515 10.9826 5.53284C10.7687 5.48788 10.5026 5.43652 10.4036 5.43652H10.2275V5.43652C9.78182 5.43652 9.35986 5.63727 9.0787 5.98306L8.99478 6.08627V6.08627C8.76974 6.39763 8.68118 6.78721 8.74949 7.16526L8.75736 7.20881C8.79772 7.43222 8.88772 7.64372 9.0207 7.82772L9.08482 7.91643C9.14212 7.99571 9.20516 8.07067 9.27344 8.14072L10.7511 9.65671" stroke="black" stroke-width="0.8" stroke-linecap="round"/>
<path d="M25.7419 5.92372L26.4568 5.70035C26.6731 5.63278 26.8916 5.57259 27.1134 5.52644C27.3215 5.48315 27.5675 5.43652 27.6618 5.43652H27.8379V5.43652C28.2836 5.43652 28.7056 5.63727 28.9867 5.98306L29.0706 6.08627V6.08627C29.2957 6.39763 29.3843 6.78721 29.3159 7.16526L29.3081 7.20881C29.2677 7.43222 29.1777 7.64372 29.0447 7.82772L28.9806 7.91643C28.9233 7.99571 28.8603 8.07067 28.792 8.14072L27.3143 9.65671" stroke="black" stroke-width="0.8" stroke-linecap="round"/>
<path d="M28.0137 17.132L28.7867 18.8431C28.858 19.0011 28.9077 19.168 28.9342 19.3393L28.9874 19.6829C29.04 20.0225 28.9405 20.3679 28.7154 20.6275V20.6275C28.4934 20.8834 28.1713 21.0304 27.8325 21.0304H27.5335C27.2698 21.0304 27.0092 20.9732 26.7697 20.8628L25.7244 20.3807" stroke="black" stroke-width="0.8"/>
<path d="M10.2535 17.0183L9.31234 18.8122C9.2189 18.9903 9.15551 19.1826 9.12473 19.3814L9.07803 19.6829C9.02544 20.0225 9.12493 20.368 9.35005 20.6275V20.6275C9.57202 20.8834 9.89413 21.0305 10.2329 21.0305H10.5319C10.7957 21.0305 11.0562 20.9733 11.2957 20.8628L12.341 20.3807" stroke="black" stroke-width="0.8"/>
<path d="M25.7246 5.92386L24.3723 3.42902C24.229 3.16466 23.9524 3 23.6517 3V3C23.5099 3 23.3704 3.03681 23.2471 3.10683L21.8287 3.91194C21.3812 4.16595 20.8755 4.29949 20.3609 4.29949H17.7046C17.1901 4.29949 16.6843 4.16595 16.2368 3.91194L14.8184 3.10683C14.6951 3.03681 14.5557 3 14.4138 3V3C14.1131 3 13.8366 3.16466 13.6933 3.42902L12.3409 5.92386" stroke="black" stroke-width="0.8" stroke-linecap="round"/>
<path d="M20.2656 19.0813L19.3831 18.9456C19.2672 18.9278 19.1501 18.9188 19.0329 18.9188V18.9188C18.9157 18.9188 18.7986 18.9278 18.6828 18.9456L17.8002 19.0813" stroke="black" stroke-width="0.8" stroke-linecap="round"/>
<path d="M18.5154 8.03558H19.551C19.554 8.03558 19.5551 8.03952 19.5526 8.04109L19.2928 8.20082C19.1336 8.29873 18.9328 8.29873 18.7736 8.20082L18.5139 8.04109C18.5113 8.03952 18.5124 8.03558 18.5154 8.03558Z" fill="black" stroke="black" stroke-width="0.8"/>
<path d="M17.1966 30.1268H20.6939C20.9186 30.1268 21.0791 30.3445 21.0126 30.5592C20.8828 30.9782 20.4952 31.2639 20.0565 31.2639H17.8339C17.3952 31.2639 17.0077 30.9782 16.8779 30.5592C16.8114 30.3445 16.9718 30.1268 17.1966 30.1268Z" stroke="black" stroke-width="0.8" stroke-linejoin="round"/>
<path d="M23.7881 26.2285L22.4242 30.3597C22.022 31.5781 20.8837 32.401 19.6007 32.401H18.466C17.183 32.401 16.0447 31.5781 15.6425 30.3597L14.2786 26.2285" stroke="black" stroke-width="0.8" stroke-linecap="round"/>
<path d="M16.7432 6.0863V7.3858" stroke="black" stroke-width="0.8" stroke-linecap="round"/>
<path d="M21.1465 22.33V23.9544" stroke="black" stroke-width="0.8" stroke-linecap="round"/>
<path d="M16.9199 22.33V23.9544" stroke="black" stroke-width="0.8" stroke-linecap="round"/>
<path d="M21.3223 6.0863V7.3858" stroke="black" stroke-width="0.8" stroke-linecap="round"/>
</svg>
